<svg xmlns="http://www.w3.org/2000/svg" width="256" height="256" viewBox="0 0 256 256">
  <defs>
    <style>
      .cls-1, .cls-3, .cls-4, .cls-5 {
        fill: #fff;
      }

      .cls-1, .cls-3, .cls-4 {
        stroke: #000;
        stroke-miterlimit: 10;
      }

      .cls-1 {
        stroke-width: 13.38px;
      }

      .cls-2 {
        fill: none;
      }

      .cls-3 {
        stroke-width: 10.04px;
      }

      .cls-4 {
        stroke-width: 5.58px;
      }
    </style>
  </defs>
  <g id="Layer_2" data-name="Layer 2">
    <g id="pickups">
      <g>
        <g>
          <polygon class="cls-1" points="193.38 187.83 104.26 213.89 37.13 149.75 59.12 59.54 148.24 33.47 215.37 97.62 193.38 187.83"/>
          <rect class="cls-2" x="19.77" y="21.45" width="212.2" height="212.2"/>
        </g>
        <g>
          <polygon class="cls-3" points="186.16 230.31 72.31 230.31 63.93 224.16 57.24 202.74 62.28 194.36 196.19 194.36 201.23 202.74 194.54 224.16 186.16 230.31"/>
          <circle class="cls-4" cx="87.69" cy="211.87" r="14.27"/>
          <circle class="cls-4" cx="170.2" cy="211.87" r="14.27"/>
        </g>
        <rect class="cls-2" width="256" height="256"/>
        <g>
          <polygon class="cls-5" points="125.49 151.35 147.45 129.4 125.49 107.44 134.71 86.49 177.61 129.4 134.71 172.3 125.49 151.35"/>
          <path d="M135.62,91.35l38,38-38,38.05L128.81,152l22.58-22.58-22.58-22.57,6.81-15.47m-1.82-9.71-3.28,7.46-6.81,15.47-1.54,3.49,2.7,2.7,18.63,18.63L124.87,148l-2.7,2.69,1.54,3.49,6.81,15.48,3.28,7.46,5.76-5.76,38.05-38,3.94-4-3.94-3.94-38.05-38-5.76-5.76Z"/>
        </g>
        <g>
          <polygon class="cls-5" points="171.78 151.35 193.73 129.4 171.78 107.44 180.99 86.49 223.9 129.4 180.99 172.3 171.78 151.35"/>
          <path d="M181.9,91.35l38,38-38,38.05L175.1,152l22.57-22.58L175.1,106.82l6.8-15.47m-1.82-9.71L176.8,89.1,170,104.57l-1.53,3.49,2.7,2.7,18.63,18.63L171.16,148l-2.7,2.69,1.53,3.49,6.81,15.48,3.28,7.46,5.77-5.76,38.05-38,3.94-4-3.94-3.94-38.05-38-5.77-5.76Z"/>
        </g>
      </g>
    </g>
  </g>
</svg>
