<svg xmlns="http://www.w3.org/2000/svg" width="256" height="256" viewBox="0 0 256 256">
  <defs>
    <style>
      .cls-1, .cls-3, .cls-4, .cls-5 {
        fill: #fff;
      }

      .cls-1, .cls-3, .cls-4 {
        stroke: #000;
        stroke-miterlimit: 10;
      }

      .cls-1 {
        stroke-width: 11.46px;
      }

      .cls-2 {
        fill: none;
      }

      .cls-3 {
        stroke-width: 9.94px;
      }

      .cls-4 {
        stroke-width: 7.53px;
      }
    </style>
  </defs>
  <g id="Layer_2" data-name="Layer 2">
    <g id="pickups">
      <g>
        <g>
          <polygon class="cls-1" points="181.3 146.46 111.34 166.92 58.65 116.57 75.91 45.76 145.86 25.3 198.56 75.65 181.3 146.46"/>
          <rect class="cls-2" x="41.34" y="23.41" width="188.33" height="188.33"/>
          <g>
            <polygon class="cls-3" points="116.66 207.39 84.09 230.31 51.51 230.31 51.51 128.67 84.09 128.67 116.66 151.59 116.66 207.39"/>
            <polygon class="cls-3" points="134.47 207.39 167.04 230.31 199.62 230.31 199.62 128.67 167.04 128.67 134.47 151.59 134.47 207.39"/>
            <rect class="cls-4" x="91.85" y="145.4" width="66.48" height="67.55"/>
          </g>
        </g>
        <rect x="101" y="94.05" width="48.18" height="8.34" transform="translate(106.1 -59.68) rotate(45)"/>
        <rect x="101" y="94.05" width="48.18" height="8.34" transform="translate(283 79.23) rotate(135)"/>
        <g>
          <polygon class="cls-5" points="82.19 176.46 103.14 167.25 125.09 189.2 147.05 167.25 168 176.46 125.09 219.37 82.19 176.46"/>
          <path d="M147.67,170.57l15.47,6.8-38,38-38-38,15.48-6.8,22.57,22.57,22.58-22.57m-1.25-6.64-2.69,2.7-18.64,18.63-18.63-18.63-2.7-2.7-3.49,1.53L84.8,172.27l-7.46,3.28,5.76,5.77,38.05,38.05,3.94,3.94,3.95-3.94,38-38.05,5.77-5.77-7.46-3.28-15.48-6.81-3.49-1.53Z"/>
        </g>
        <rect class="cls-2" width="256" height="256"/>
      </g>
    </g>
  </g>
</svg>
