<svg fill="none" xmlns="http://www.w3.org/2000/svg" viewBox="0 0 176 40">
  <path
    d="m29.805 10.506-6.422 9.545v-.064l-.293-.433a75.29 75.29 0 0 1-.74-1.08l-.267-.394c-.288-.427-.543-.778-.788-1.13a7.583 7.583 0 0 0-1.3-1.404l-.266-.205a5.741 5.741 0 0 0-6.08-.248c-.51.289-.974.653-1.376 1.08l8.353-11.884a16.356 16.356 0 0 1 5.911 2.922V7.18l.772.67.098.086c.869.791 1.67 1.651 2.398 2.571Z"
    fill="#9B00FF"
  >
  </path>
  <path
    d="M175.418 27.776a5.296 5.296 0 0 1-2.175.572c-1.126 0-2.208-.729-3.263-1.75-.751-.718-1.528-1.62-2.268-2.5a10.164 10.164 0 0 0 2.833-.843 6.532 6.532 0 0 0 2.04-1.459c1.147-1.14 2.224-3.052 2.224-5.996 0-5.148-3.519-8.643-9.071-8.643h-11.523v25.745h5.552v-8.46h1.398c2.284 2.372 5.003 7.023 8.619 8.411l.277.092.131.044.245.07.353.075h.174l.267.038h1.615l.304-.043.174-.027.381-.07a7.916 7.916 0 0 0 2.257-.783l-.544-4.473Zm-15.651-8.48v-6.99h5.737a3.383 3.383 0 0 1 2.538.973 3.33 3.33 0 0 1 .981 2.521 3.324 3.324 0 0 1-.981 2.521 3.36 3.36 0 0 1-2.538.974h-5.737ZM78.503 7.157V32.902h5.552v-9.377h10.55V18.36h-10.55v-6.05h13.513V7.14H78.503v.016ZM144.405 7.141l-6.776 18.944h-.146l-6.776-18.944h-5.927l.005.016h-.005l9.625 25.745h6.297l9.625-25.745h-.005l.005-.016h-5.922ZM123.393 27.781a5.291 5.291 0 0 1-2.175.573c-1.126 0-2.213-.73-3.263-1.75-.75-.719-1.523-1.62-2.262-2.501.98-.143 1.935-.427 2.833-.843a6.555 6.555 0 0 0 2.034-1.459c1.147-1.14 2.224-3.051 2.224-5.995 0-5.148-3.518-8.643-9.071-8.643h-11.517v25.74h5.552v-8.46h1.403c2.278 2.371 4.997 7.022 8.614 8.41h.027l.272.092.13.044.245.07.353.075h.175l.266.038h1.615l.31-.043.174-.027.375-.07a7.854 7.854 0 0 0 2.279-.783l-.577-4.473-.016.005Zm-15.645-8.486v-6.99h5.742a3.39 3.39 0 0 1 2.537.976 3.339 3.339 0 0 1 .982 2.52 3.324 3.324 0 0 1-.981 2.52 3.36 3.36 0 0 1-2.538.974h-5.742Z"
    fill="#1A1A1A"
  >
  </path>
  <g clip-path="url(#a)">
    <path
      d="M55.592 25.236s-.764.981-1.207 1.422a9.556 9.556 0 0 1-6.724 2.747c-1.33 0-2.586-.27-3.744-.76a8.3 8.3 0 0 1-1.65-.907c-.025 0-.025-.025-.05-.025-1.01-.736-1.822-1.619-2.512-2.575-.394-.54-.764-1.08-1.133-1.619-.123-.171-.246-.368-.37-.54-.344-.49-.69-1.005-1.01-1.495l-.615-.908c-.123-.196-.271-.392-.394-.588l-6.404 9.417c1.33 2.722 4.532 5.543 4.532 5.543a20.303 20.303 0 0 0 5.542 3.482 20.29 20.29 0 0 0 5.024 1.374c.271.049.542.073.813.098l9.902-14.666Z"
      fill="#FF9603"
    >
    </path>
    <path
      d="M67.833 20.012c-.049 11.036-9.064 20.013-20.148 20.013-.665 0-1.305-.025-1.97-.099l19.73-29.282a18.568 18.568 0 0 1 1.502 3.605c.566 1.79.886 3.752.886 5.763Z"
      fill="#FFC700"
    >
    </path>
    <path d="m23.35 19.988-.05.049 6.405-9.54-6.355 9.49Z" fill="#9B00FF"></path>
    <path
      d="m39.73 14.862 3.99-5.984 5.862-8.78C48.942.05 48.326 0 47.66 0a20.289 20.289 0 0 0-13.374 5.052s-.123.123-.345.319c-.295.27-.566.54-.862.834-.837.858-1.946 2.109-2.783 3.409l-.591.907-6.404 9.54-.591.883c-.124.196-.271.393-.395.589l-.27.392c-.222.343-.493.711-.74 1.08l-8.67 12.826c1.207.27 2.464.441 3.744.441.74 0 1.503-.049 2.266-.147a16.33 16.33 0 0 0 8.597-3.948s.098-.099.295-.27c.247-.22.468-.442.69-.687.468-.49 1.059-1.104 1.576-1.79l7.636-11.282.788-1.128c.123-.171.246-.368.37-.54.369-.539.738-1.078 1.132-1.618ZM23.325 20.061l6.404-9.564-6.404 9.564Z"
      fill="#FF0029"
    >
    </path>
    <path d="m39.73 14.862 3.99-5.984-3.99 5.984Z" fill="#FF9603"></path>
    <path
      d="M21.281 23.053c-.123.172-.246.32-.345.442-.418.49-.788.858-1.231 1.177-.099.049-.173.123-.271.172a5.66 5.66 0 0 1-2.956.833c-3.153 0-5.714-2.55-5.739-5.665 0-1.079.32-2.084.862-2.967l-2.093 2.992 1.946-2.796-8.277 12.262a16.338 16.338 0 0 0 8.941 6.156l.296.074c.099.024.172.049.271.049l8.67-12.827c-.05.05-.074.074-.074.098Z"
      fill="#9B00FF"
    >
    </path>
    <path
      d="M29.385 10.055c-2.217-2.648-5.074-4.684-8.4-5.665-.123-.05-.27-.074-.394-.098-.123-.025-.221-.05-.344-.074l-8.818 13.047.147-.196c.197-.319.42-.613.69-.883a6.385 6.385 0 0 1 1.355-1.079c.837-.466 1.798-.76 2.832-.76 1.158 0 2.291.343 3.252 1.005l.024.025c.099.074.173.147.271.196.444.344.838.81 1.306 1.398.27.343.492.711.788 1.128l.27.393c.223.343.469.662.69 1.005.025.025.025.05.05.074l.27.417 6.405-9.467c-.148-.171-.271-.319-.394-.466Z"
      fill="#9B00FF"
    >
    </path>
    <path
      d="M64.557 9.099a20.151 20.151 0 0 0-14.95-9l-5.863 8.779-3.99 5.984.296-.368c.64-.81 1.354-1.57 2.241-2.207 0 0 .025 0 .025-.025 0 0 .024 0 .024-.024.173-.123.345-.22.542-.343a9.584 9.584 0 0 1 4.852-1.325 9.45 9.45 0 0 1 4.41 1.08c.024 0 .049.024.073.024.247.123.468.27.69.417.025.024.05.024.099.049.221.147.418.294.64.466.025.024.074.049.099.073l.59.515a.34.34 0 0 0 .1.074c.196.172.369.368.541.588l.074.074c.172.196.345.417.492.638.025.024.05.049.05.073.148.221.295.466.443.687.025.025.025.05.05.074.147.245.246.49.369.735 0 .025.024.05.024.074.124.245.222.515.296.785 0 .024.025.049.025.073.098.27.148.515.221.81 0 .024.025.073.025.098l.148.809c0 .05.024.074.024.123.025.27.05.515.05.784V20.11c0 .246-.025.49-.05.736 0 .074 0 .147-.024.196-.148 1.276-.517 2.502-1.109 3.556l9.434-14.003c-.345-.515-.64-1.006-.96-1.496Z"
      fill="#FF9603"
    >
    </path>
    <path
      d="m11.429 17.265 8.818-13.047c-.198-.049-.37-.098-.567-.122a14.472 14.472 0 0 0-1.01-.172 17.866 17.866 0 0 0-2.266-.147C7.39 3.752.024 11.037 0 20.012c0 3.36 1.06 6.45 2.808 9.05.074.098.123.196.197.294M3.005 29.356c.05.074.098.123.148.172l8.276-12.262"
      fill="#00BDFF"
    >
    </path>
  </g>
  <defs>
    <clipPath id="a">
      <path fill="#fff" d="M0 0h67.833v40H0z"></path>
    </clipPath>
  </defs>
</svg>
