<svg width="20" height="20" fill="none" xmlns="http://www.w3.org/2000/svg"><path d="M9.375 1.25h1.25v3.125h-1.25V1.25zm4.179 4.312l2.192-2.191.883.884-2.19 2.191-.885-.884zm2.071 3.813h3.125v1.25h-3.125v-1.25zm-2.071 5.063l.884-.884 2.191 2.191-.883.884-2.192-2.192zm-4.179 1.187h1.25v3.125h-1.25v-3.125zm-6.004.12l2.192-2.191.883.884-2.19 2.191-.885-.884zM1.25 9.375h3.125v1.25H1.25v-1.25zm2.121-5.12l.884-.884 2.191 2.191-.883.884L3.37 4.255zM10 6.25a3.75 3.75 0 100 7.5 3.75 3.75 0 000-7.5z" fill="#1A1A1A"/></svg>