<svg width="20" height="20" fill="none" xmlns="http://www.w3.org/2000/svg"><path d="M9.375 1.25h1.25v3.125h-1.25V1.25zm4.18 4.312l2.19-2.191.885.884-2.192 2.191-.883-.884zm2.07 3.813h3.125v1.25h-3.125v-1.25zm-2.07 5.063l.883-.884 2.192 2.191-.884.884-2.191-2.192zm-4.18 1.187h1.25v3.125h-1.25v-3.125zm-6.004.12l2.191-2.191.884.884-2.191 2.191-.884-.884zM1.25 9.375h3.125v1.25H1.25v-1.25zm2.121-5.12l.884-.884 2.191 2.191-.884.884-2.19-2.191z" fill="#fff"/><path d="M8.194 7.298a3.25 3.25 0 113.612 5.404 3.25 3.25 0 01-3.612-5.404z" stroke="#fff"/></svg>